<?xml version="1.0" encoding="UTF-8"?>
<svg version="1.1" xmlns="http://www.w3.org/2000/svg" width="527" height="246">
<path d="M0 0 C173.91 0 347.82 0 527 0 C527 81.18 527 162.36 527 246 C353.09 246 179.18 246 0 246 C0 164.82 0 83.64 0 0 Z " fill="#020216" transform="translate(0,0)"/>
<path d="M0 0 C3.08933333 1.35270161 5.67642988 3.22161965 8.3828125 5.21875 C9.96195412 6.32769347 11.54172727 7.43573809 13.12207031 8.54296875 C13.9264856 9.11644043 14.73090088 9.68991211 15.55969238 10.28076172 C19.47633534 13.04010339 23.48621433 15.65415829 27.4921875 18.28125 C29.05657306 19.31682745 30.62037645 20.35328489 32.18359375 21.390625 C34.5561612 22.96406927 36.929638 24.5360376 39.30615234 26.10351562 C41.66273107 27.65843041 44.01530739 29.21924042 46.3671875 30.78125 C47.07753143 31.24793091 47.78787537 31.71461182 48.51974487 32.19543457 C54.22632338 35.99895257 58.23618325 38.7638649 59.6796875 45.86328125 C60.79931106 53.33198966 59.83410983 58.49438139 56 65 C53.4375 68.0625 53.4375 68.0625 51 70 C50.01 70 49.02 70 48 70 C48 70.66 48 71.32 48 72 C45.525 72.99 45.525 72.99 43 74 C43.09765625 72.07942708 43.1953125 70.15885417 43.29296875 68.23828125 C42.72478538 63.89736028 40.60316594 61.50585283 37.3125 58.74609375 C36.21628613 57.96527526 35.11148397 57.19642408 34 56.4375 C33.39406006 56.01404297 32.78812012 55.59058594 32.16381836 55.15429688 C25.48530649 50.5430032 18.59005898 46.26767904 11.7109375 41.96484375 C7.33193704 39.22013282 2.99473076 36.41841079 -1.3125 33.5625 C-1.90409912 33.17384766 -2.49569824 32.78519531 -3.10522461 32.38476562 C-14.81977196 24.57169387 -14.81977196 24.57169387 -17 19 C-17.71719557 14.33460659 -18.12614095 9.96988569 -15.72265625 5.765625 C-11.06653542 0.25569228 -7.16840616 -1.03820142 0 0 Z " fill="#0CB2CE" transform="translate(122,64)"/>
<path d="M0 0 C4.19574709 5.4727136 4.44925863 9.16708962 4 16 C3 19.625 3 19.625 2 22 C1.34 22 0.68 22 0 22 C-0.22945313 22.7528125 -0.45890625 23.505625 -0.6953125 24.28125 C-2.2929213 27.61039887 -3.7555867 28.55588973 -6.875 30.5 C-7.95910156 31.18964844 -9.04320312 31.87929687 -10.16015625 32.58984375 C-10.77004395 32.97124512 -11.37993164 33.35264648 -12.00830078 33.74560547 C-14.97038612 35.61116008 -17.89767948 37.52913097 -20.82910156 39.44238281 C-23.36626099 41.09757254 -25.90736638 42.74655888 -28.44921875 44.39453125 C-32.41500581 46.96788322 -36.37504627 49.5498526 -40.33203125 52.13671875 C-41.38028076 52.8217749 -42.42853027 53.50683105 -43.50854492 54.21264648 C-45.56002682 55.55378369 -47.61098507 56.89572231 -49.66137695 58.23852539 C-50.59038818 58.84559326 -51.51939941 59.45266113 -52.4765625 60.078125 C-53.30236816 60.61856445 -54.12817383 61.15900391 -54.97900391 61.71582031 C-58.95212141 64.24041539 -62.36275954 64.47264182 -67 64 C-70.8001378 62.56439238 -71.7925344 61.36485329 -73.8125 57.8125 C-75.5061133 52.37510992 -75.81720142 48.31540404 -73.875 42.8125 C-69.4266266 36.13993989 -61.9401929 32.28585038 -55.27734375 28.10546875 C-47.58600855 23.59808807 -47.58600855 23.59808807 -42 17 C-41.92907158 14.7927077 -41.91584975 12.58332548 -41.9375 10.375 C-41.94652344 9.18648437 -41.95554688 7.99796875 -41.96484375 6.7734375 C-41.97644531 5.85820313 -41.98804688 4.94296875 -42 4 C-32.42432832 7.53059837 -20.71343656 14.48610935 -14.9375 23.0625 C-13.9327033 26.210863 -13.7653829 28.71536054 -14 32 C-12.68 31.67 -11.36 31.34 -10 31 C-10 30.34 -10 29.68 -10 29 C-8.34928604 27.97388051 -6.68029994 26.97691857 -5 26 C-1.07305013 22.56391886 0.66429094 18.09794673 1.22265625 12.9453125 C1.28237612 8.56016781 0.71843871 4.31063225 0 0 Z " fill="#121C6D" transform="translate(180,105)"/>
<path d="M0 0 C4.66015053 1.5442567 8.43140861 4.03307206 12.51171875 6.7265625 C13.77048828 7.54036377 13.77048828 7.54036377 15.0546875 8.37060547 C16.72178119 9.44887807 18.38640455 10.53098113 20.04833984 11.6171875 C22.95689159 13.51420473 25.88863844 15.37168445 28.82421875 17.2265625 C36.29647367 21.97948414 36.29647367 21.97948414 36.94921875 24.8515625 C36.04863297 29.53460858 33.00288033 31.39979352 29.32421875 34.1015625 C25.70535829 36.43254257 21.99677427 38.58796215 18.26171875 40.7265625 C16.33244929 41.84222265 14.40403926 42.95937052 12.4765625 44.078125 C11.5796167 44.59729492 10.6826709 45.11646484 9.75854492 45.65136719 C7.72204004 46.86456937 5.75924572 48.12421591 3.80859375 49.46875 C1.32421875 51.1015625 1.32421875 51.1015625 -1.36328125 51.6015625 C-3.67578125 51.1015625 -3.67578125 51.1015625 -5.29321289 49.67382812 C-7.42381904 45.7098397 -7.12371905 41.87892676 -7.109375 37.4453125 C-7.11461685 36.50602905 -7.1198587 35.56674561 -7.1252594 34.59899902 C-7.13167595 32.6153258 -7.13034735 30.63161452 -7.12182617 28.64794922 C-7.11331128 25.61226761 -7.14209049 22.57846472 -7.17382812 19.54296875 C-7.17544012 17.6145839 -7.17486264 15.68619571 -7.171875 13.7578125 C-7.18310898 12.85043335 -7.19434296 11.9430542 -7.20591736 11.00817871 C-7.13659074 4.74370179 -7.13659074 4.74370179 -4.81201172 1.50439453 C-2.67578125 0.1015625 -2.67578125 0.1015625 0 0 Z " fill="#A09FB2" transform="translate(82.67578125,90.8984375)"/>
<path d="M0 0 C2.34576488 1.11291913 3.97143135 2.33553342 6 4 C6.5775 3.71125 7.155 3.4225 7.75 3.125 C8.86375 2.568125 8.86375 2.568125 10 2 C10.5775 1.62875 11.155 1.2575 11.75 0.875 C15.85485248 -0.72133152 19.86508771 -0.69499094 24.00390625 0.65234375 C27.19618653 2.20516485 28.80509587 3.53838496 30.1875 6.8125 C31.62527001 12.55833272 31.20835439 18.56101584 31.125 24.4375 C31.11597656 25.64599609 31.10695313 26.85449219 31.09765625 28.09960938 C31.07420168 31.06661278 31.04137794 34.03320143 31 37 C28.03 37 25.06 37 22 37 C22 28.42 22 19.84 22 11 C18.47940432 9.82646811 15.693507 9.79853598 12 10 C9.36008732 12.63991268 9.69759203 13.97946296 9.5859375 17.6640625 C9.54726563 18.78554687 9.50859375 19.90703125 9.46875 21.0625 C9.42234375 22.8259375 9.42234375 22.8259375 9.375 24.625 C9.33632813 25.80835937 9.29765625 26.99171875 9.2578125 28.2109375 C9.16331155 31.14046691 9.07775442 34.06998597 9 37 C5.7 37 2.4 37 -1 37 C-1 28.42 -1 19.84 -1 11 C-4.73661142 9.13169429 -6.03589176 8.491781 -10 9 C-11.73743843 10.10278544 -11.73743843 10.10278544 -13 12 C-13.5060736 14.8028729 -13.5060736 14.8028729 -13.51171875 17.98046875 C-13.54716797 19.14384766 -13.58261719 20.30722656 -13.61914062 21.50585938 C-13.65297852 23.32827148 -13.65297852 23.32827148 -13.6875 25.1875 C-13.72166016 26.41404297 -13.75582031 27.64058594 -13.79101562 28.90429688 C-13.8735941 31.93610678 -13.94271369 34.96762379 -14 38 C-17.3 38 -20.6 38 -24 38 C-24 25.79 -24 13.58 -24 1 C-21.03 1 -18.06 1 -15 1 C-15 1.99 -15 2.98 -15 4 C-14.195625 3.34 -13.39125 2.68 -12.5625 2 C-8.55080722 -0.65549404 -4.67224727 -0.86615636 0 0 Z " fill="#F0F0F0" transform="translate(453,93)"/>
<path d="M0 0 C3.3 0 6.6 0 10 0 C10.00410889 1.02883301 10.00821777 2.05766602 10.01245117 3.11767578 C10.03430788 6.9536269 10.08866353 10.78856176 10.15258789 14.62402344 C10.17571129 16.28049949 10.19015032 17.93712138 10.19555664 19.59375 C10.20488843 21.98268921 10.24596464 24.36935279 10.29296875 26.7578125 C10.2890361 27.49242706 10.28510345 28.22704163 10.28105164 28.98391724 C10.44231632 34.73297619 11.97381675 37.16963701 16 41 C19.11157639 41.7195092 19.11157639 41.7195092 22.3125 41.375 C23.38113281 41.32085937 24.44976562 41.26671875 25.55078125 41.2109375 C26.76314453 41.10652344 26.76314453 41.10652344 28 41 C31.35462312 35.88332309 32.59866161 32.04880761 32.609375 25.87890625 C32.62591125 25.13414536 32.64244751 24.38938446 32.65948486 23.62205505 C32.70764613 21.26878353 32.72926294 18.91615651 32.75 16.5625 C32.77818663 14.95634833 32.80811779 13.35022628 32.83984375 11.74414062 C32.91339531 7.82948026 32.96316329 3.91517099 33 0 C36.3 0 39.6 0 43 0 C43.07453636 4.85633035 43.12878329 9.71232268 43.16479492 14.5690918 C43.17981806 16.21889044 43.2002426 17.86864958 43.22631836 19.51831055 C43.26298899 21.89902536 43.27979103 24.27920908 43.29296875 26.66015625 C43.30845261 27.38960953 43.32393646 28.11906281 43.33988953 28.87062073 C43.34221038 36.04232382 41.08837861 41.76623914 36 47 C28.56679307 51.33603737 21.28091271 51.89008284 12.875 50.5 C7.84195778 49.09074818 4.73710873 45.29060288 2 41 C0.03499473 36.21296949 -0.26706522 31.86415581 -0.1953125 26.7578125 C-0.1924826 25.98944061 -0.18965271 25.22106873 -0.18673706 24.42941284 C-0.17561311 21.99444479 -0.1505236 19.55985538 -0.125 17.125 C-0.11496011 15.46615118 -0.10583603 13.80729654 -0.09765625 12.1484375 C-0.07569937 8.09881421 -0.04122406 4.04947113 0 0 Z " fill="#F2F2F3" transform="translate(216,80)"/>
<path d="M0 0 C10.56 0 21.12 0 32 0 C32 2.64 32 5.28 32 8 C24.74 8 17.48 8 10 8 C10 12.29 10 16.58 10 21 C16.27 21 22.54 21 29 21 C29 23.97 29 26.94 29 30 C22.73 30 16.46 30 10 30 C10 36.6 10 43.2 10 50 C6.7 50 3.4 50 0 50 C0 33.5 0 17 0 0 Z " fill="#F2F2F3" transform="translate(353,80)"/>
<path d="M0 0 C3.3 0 6.6 0 10 0 C11.17286739 2.9351605 12.33849007 5.87284842 13.5 8.8125 C13.83386719 9.64587891 14.16773438 10.47925781 14.51171875 11.33789062 C14.82753906 12.14033203 15.14335937 12.94277344 15.46875 13.76953125 C15.90864258 14.87711792 15.90864258 14.87711792 16.35742188 16.00708008 C17 18 17 18 17 21 C17.66 21 18.32 21 19 21 C19.33 21.66 19.66 22.32 20 23 C20.25394531 22.20335938 20.50789063 21.40671875 20.76953125 20.5859375 C22.52887788 15.16952202 24.29979443 10.03220129 27 5 C27.68528045 3.34089996 28.35891863 1.67667436 29 0 C31.97 0 34.94 0 38 0 C36.41973613 9.1552244 32.72109298 17.98912763 28.37890625 26.15625 C27.24429551 28.49618376 26.27332875 30.79627378 25.33984375 33.21875 C25.04577637 33.97438232 24.75170898 34.73001465 24.44873047 35.50854492 C23.87182763 37.00833337 23.30886848 38.51358457 22.76220703 40.0246582 C20.75610765 45.20578877 18.58783946 47.82659326 14 51 C10.49852959 52.1671568 7.67329964 52.13357453 4 52 C3.34 51.67 2.68 51.34 2 51 C1.95758277 48.66705225 1.95907063 46.33297433 2 44 C3 43 3 43 6.375 42.625 C10.05762104 41.99006534 10.85214524 41.83543022 13 39 C13.30744223 29.93045429 8.75520496 22.02667027 5 14 C0.56520005 4.38030041 0.56520005 4.38030041 0 0 Z " fill="#F3F3F3" transform="translate(308,94)"/>
<path d="M0 0 C5.11762818 2.65358498 8.17705942 5.53117826 10 11 C10.08291953 12.9920303 10.10738177 14.98673713 10.09765625 16.98046875 C10.09443359 18.14384766 10.09121094 19.30722656 10.08789062 20.50585938 C10.07532227 22.32827148 10.07532227 22.32827148 10.0625 24.1875 C10.05798828 25.41404297 10.05347656 26.64058594 10.04882812 27.90429688 C10.03703065 30.93624668 10.02056921 33.96809906 10 37 C6.7 37 3.4 37 0 37 C-0.0093457 36.25838623 -0.01869141 35.51677246 -0.02832031 34.75268555 C-0.08195751 31.39694286 -0.16561793 28.04260438 -0.25 24.6875 C-0.26417969 23.52025391 -0.27835937 22.35300781 -0.29296875 21.15039062 C-0.32519531 20.03212891 -0.35742188 18.91386719 -0.390625 17.76171875 C-0.41157227 16.73006592 -0.43251953 15.69841309 -0.45410156 14.63549805 C-0.76999493 11.89126046 -0.76999493 11.89126046 -2.84667969 10.16333008 C-5.76172975 8.58847593 -7.73579629 8.58329314 -11 9 C-12.76727037 10.09660451 -12.76727037 10.09660451 -14 12 C-14.5060736 14.8028729 -14.5060736 14.8028729 -14.51171875 17.98046875 C-14.54716797 19.14384766 -14.58261719 20.30722656 -14.61914062 21.50585938 C-14.65297852 23.32827148 -14.65297852 23.32827148 -14.6875 25.1875 C-14.72166016 26.41404297 -14.75582031 27.64058594 -14.79101562 28.90429688 C-14.8735941 31.93610678 -14.94271369 34.96762379 -15 38 C-18.3 38 -21.6 38 -25 38 C-25 25.79 -25 13.58 -25 1 C-22.03 1 -19.06 1 -16 1 C-16 2.32 -16 3.64 -16 5 C-15.34 5 -14.68 5 -14 5 C-13.67 4.01 -13.34 3.02 -13 2 C-8.91003908 -0.66115361 -4.72034938 -0.67199418 0 0 Z " fill="#EDEDEE" transform="translate(294,93)"/>
<path d="M0 0 C3.3 0 6.6 0 10 0 C10 17.82 10 35.64 10 54 C6.7 54 3.4 54 0 54 C0 36.18 0 18.36 0 0 Z " fill="#E4E4E5" transform="translate(410,77)"/>
<path d="M0 0 C0.33 0 0.66 0 1 0 C0.99476318 0.80026611 0.98952637 1.60053223 0.98413086 2.42504883 C0.8540492 26.24645839 1.1293581 50.05708374 1.5 73.875 C1.51195782 74.64364506 1.52391563 75.41229012 1.53623581 76.20422745 C1.68600838 85.80289785 1.84072676 95.40148241 2 105 C2.63164063 105.28875 3.26328125 105.5775 3.9140625 105.875 C6 107 6 107 7.375 109 C9.66213066 111.81493005 11.47139805 112.21586623 15 113 C21.26017702 113.56589171 26.95662036 112.60013834 33 111 C31.02 111.99 31.02 111.99 29 113 C29 113.66 29 114.32 29 115 C28.27554688 115.31453125 27.55109375 115.6290625 26.8046875 115.953125 C25.83789062 116.38109375 24.87109375 116.8090625 23.875 117.25 C22.92367187 117.66765625 21.97234375 118.0853125 20.9921875 118.515625 C17.90827489 119.9392816 17.90827489 119.9392816 15.078125 122.140625 C8.72892262 125.97592999 0.55192495 124.78398343 -6.46875 123.234375 C-16.13039091 120.22109095 -21.03834332 115.71679029 -26 107 C-26.82564453 105.55367187 -26.82564453 105.55367187 -27.66796875 104.078125 C-30.02335873 98.40912957 -29.31055007 92.0793327 -29.1875 86.0625 C-29.17396484 84.80630859 -29.16042969 83.55011719 -29.14648438 82.25585938 C-29.11128591 79.17012721 -29.06204305 76.08528976 -29 73 C-28.67 73 -28.34 73 -28 73 C-27.9906543 73.55349121 -27.98130859 74.10698242 -27.97167969 74.67724609 C-27.92949615 89.38432215 -27.92949615 89.38432215 -23 103 C-22.48179688 103.89912109 -22.48179688 103.89912109 -21.953125 104.81640625 C-20.57607659 107.01438737 -19.08370556 108.91629444 -17.25 110.75 C-16 112 -16 112 -16 114 C-12.99220655 115.22191609 -9.97089553 116.40584077 -6.9375 117.5625 C-6.28652344 117.81128906 -5.63554688 118.06007813 -4.96484375 118.31640625 C-0.86874495 119.74149032 2.64332275 120.13589169 7 120.125 C8.03125 120.12757813 9.0625 120.13015625 10.125 120.1328125 C12.59657009 120.01863671 14.6442958 119.71350656 17 119 C15.17208539 116.86743296 13.67384769 115.83692384 11.125 114.5625 C6.01790881 112.00895441 2.39740694 109.25146282 0 104 C-2.26430773 96.01460734 -2.26855443 88.11637329 -2.1875 79.875 C-2.17983975 78.45036026 -2.17261325 77.02571813 -2.16577148 75.60107422 C-2.13340132 70.40040648 -2.06824271 65.20030467 -2 60 C-1.9856189 58.88117432 -1.97123779 57.76234863 -1.9564209 56.60961914 C-1.84081488 47.78114334 -1.70572739 38.95306664 -1.5625 30.125 C-1.53329971 28.23053131 -1.53329971 28.23053131 -1.50350952 26.29779053 C-1.44627065 22.68018772 -1.38240748 19.06276484 -1.31640625 15.4453125 C-1.29967865 14.34882385 -1.28295105 13.25233521 -1.26571655 12.12261963 C-1.24578644 11.11036316 -1.22585632 10.09810669 -1.20532227 9.05517578 C-1.18977798 8.17177521 -1.1742337 7.28837463 -1.15821838 6.37820435 C-1.00864002 4.12986949 -0.62474171 2.15962174 0 0 Z " fill="#0C0734" transform="translate(66,66)"/>
<path d="M0 0 C4.8331478 1.28883941 8.49688148 3.80893239 12.64453125 6.546875 C13.90330078 7.36067627 13.90330078 7.36067627 15.1875 8.19091797 C16.85459369 9.26919057 18.51921705 10.35129363 20.18115234 11.4375 C23.08970409 13.33451723 26.02145094 15.19199695 28.95703125 17.046875 C31.47525244 18.64865493 33.97355341 20.26622311 36.45703125 21.921875 C36.83203125 24.859375 36.83203125 24.859375 36.45703125 27.921875 C34.95703125 29.796875 34.95703125 29.796875 33.45703125 30.921875 C29.74086671 29.59795042 26.99575676 27.96858982 23.89453125 25.546875 C18.45647812 21.49630868 12.77202698 17.96869341 6.95703125 14.484375 C5.62949829 13.68604248 5.62949829 13.68604248 4.27514648 12.87158203 C-0.45979 10.02850439 -0.45979 10.02850439 -5.54296875 7.921875 C-5.76714711 5.1570085 -5.86530383 3.45910013 -4.41796875 1.046875 C-2.54296875 -0.078125 -2.54296875 -0.078125 0 0 Z " fill="#C3C3C8" transform="translate(82.54296875,91.078125)"/>
<path d="M0 0 C2.97 0 5.94 0 9 0 C9 11.88 9 23.76 9 36 C6.03 36 3.06 36 0 36 C0 24.12 0 12.24 0 0 Z " fill="#F5F5F6" transform="translate(391,94)"/>
<path d="M0 0 C1.32 0 2.64 0 4 0 C4 1.98 4 3.96 4 6 C4.66 5.67 5.32 5.34 6 5 C12.32194394 4.54022226 12.32194394 4.54022226 14.7109375 6.16015625 C16.51340497 8.73276891 16.29710436 10.58204303 16.1875 13.6875 C16.16042969 14.68136719 16.13335937 15.67523438 16.10546875 16.69921875 C16.07066406 17.45847656 16.03585937 18.21773437 16 19 C11.66666667 19 7.33333333 19 3 19 C2.01 19.33 1.02 19.66 0 20 C0 13.4 0 6.8 0 0 Z " fill="#4F4F55" transform="translate(288,160)"/>
<path d="M0 0 C0.33 0 0.66 0 1 0 C1.01401855 0.83023682 1.01401855 0.83023682 1.02832031 1.67724609 C1.07050385 16.38432215 1.07050385 16.38432215 6 30 C6.34546875 30.59941406 6.6909375 31.19882813 7.046875 31.81640625 C8.42392341 34.01438737 9.91629444 35.91629444 11.75 37.75 C13 39 13 39 13 41 C14.6630584 41.67561748 16.33094605 42.33933281 18 43 C19.175625 43.495 20.35125 43.99 21.5625 44.5 C26.86497373 46.50496608 32.41097902 47.20822203 38 48 C38 48.66 38 49.32 38 50 C29.59961112 52.80012963 21.86716737 50.31067014 14 47 C8.89634628 44.00437716 5.88459969 39.067753 3 34 C2.17435547 32.55367187 2.17435547 32.55367187 1.33203125 31.078125 C-1.02335873 25.40912957 -0.31055007 19.0793327 -0.1875 13.0625 C-0.17396484 11.80630859 -0.16042969 10.55011719 -0.14648438 9.25585938 C-0.11128591 6.17012721 -0.06204305 3.08528976 0 0 Z " fill="#301BA4" transform="translate(37,139)"/>
<path d="M0 0 C0.99 0 1.98 0 3 0 C3 6.6 3 13.2 3 20 C2.01 20 1.02 20 0 20 C-1.01593448 13.11422188 -0.83854735 6.90188971 0 0 Z M-10 6 C-7.31325398 6.36307379 -5.44127696 6.66904228 -3.25 8.3125 C-1.76673644 10.3149058 -1.21971876 11.50985408 -1 14 C-1.79960121 16.9803318 -2.70279235 18.68229527 -4.8125 20.9375 C-7 22 -7 22 -9.625 21.375 C-12 20 -12 20 -14 17 C-14.07905064 14.66800612 -14.08798769 12.33167378 -14 10 C-11.03 10.33 -8.06 10.66 -5 11 C-6.83333333 7.83333333 -6.83333333 7.83333333 -10 6 Z " fill="#262630" transform="translate(246,160)"/>
<path d="M0 0 C0 6.27 0 12.54 0 19 C-0.66 19 -1.32 19 -2 19 C-2 17.02 -2 15.04 -2 13 C-3.0725 13.2475 -4.145 13.495 -5.25 13.75 C-9 14 -9 14 -11.4375 12.5 C-13.57590314 9.07855498 -13.56645882 6.96521177 -13 3 C-9.6279097 -2.86450486 -7.3505016 -0.8167224 0 0 Z " fill="#C1C0C5" transform="translate(339,166)"/>
<path d="M0 0 C9.625 -0.25 9.625 -0.25 13 2 C13.4375 5.4375 13.4375 5.4375 13 9 C11.375 10.9375 11.375 10.9375 9 12 C5.75 12.1875 5.75 12.1875 3 12 C3 14.31 3 16.62 3 19 C2.01 19 1.02 19 0 19 C0 12.73 0 6.46 0 0 Z " fill="#BCBCC3" transform="translate(216,161)"/>
<path d="M0 0 C3.5625 0.25 3.5625 0.25 6.5625 2.25 C7.73603189 5.77059568 7.76396402 8.556493 7.5625 12.25 C5.5625 14.25 5.5625 14.25 2.25 14.6875 C-1.4375 14.25 -1.4375 14.25 -4.4375 12.1875 C-6.4375 9.25 -6.4375 9.25 -6.375 5.5625 C-5.12262785 1.13745175 -4.64408433 0.33775159 0 0 Z " fill="#141420" transform="translate(263.4375,165.75)"/>
<path d="M0 0 C1.9375 1.0625 1.9375 1.0625 3 3 C3.504958 6.9675271 3.61854451 9.10654682 1.3125 12.4375 C-1 14 -1 14 -3.5 14.5 C-6.90524375 13.81895125 -8.02547983 12.8520847 -10 10 C-10.42519574 6.53769185 -10.63902633 4.1652833 -8.9375 1.0625 C-5.88023824 -0.6140629 -3.4093712 -0.36528977 0 0 Z " fill="#D1D1D5" transform="translate(403,166)"/>
<path d="M0 0 C2 2 2 2 2 5 C2.598125 5.2475 3.19625 5.495 3.8125 5.75 C6 7 6 7 7.375 9 C9.66213066 11.81493005 11.47139805 12.21586623 15 13 C21.26017702 13.56589171 26.95662036 12.60013834 33 11 C31.02 11.99 31.02 11.99 29 13 C29 13.66 29 14.32 29 15 C27.91332031 15.47179687 27.91332031 15.47179687 26.8046875 15.953125 C20.49089446 18.67745967 20.49089446 18.67745967 14.6875 22.3125 C11.53447577 24.29230591 9.65573626 24.34816536 6 24 C6.99 23.67 7.98 23.34 9 23 C9 22.34 9 21.68 9 21 C11.64 20.34 14.28 19.68 17 19 C15.17208539 16.86743296 13.67384769 15.83692384 11.125 14.5625 C6.00729976 12.00364988 2.48377036 9.22899023 0 4 C0 2.68 0 1.36 0 0 Z " fill="#140B4D" transform="translate(66,166)"/>
<path d="M0 0 C2 2 2 2 2.25 5.5 C2 9 2 9 0 11 C-3.09771665 11.32954432 -5.17331023 11.45334601 -7.9375 9.9375 C-9.64787795 6.81857551 -8.80513863 4.34442199 -8 1 C-5.23749964 -0.38125018 -3.05268901 -0.19079306 0 0 Z " fill="#EBEBEC" transform="translate(399,77)"/>
<path d="M0 0 C3.375 -0.125 3.375 -0.125 7 0 C9 2 9 2 9.1953125 4.6015625 C9.17210937 5.59929687 9.14890625 6.59703125 9.125 7.625 C9.10695313 8.62789062 9.08890625 9.63078125 9.0703125 10.6640625 C9.03550781 11.82035156 9.03550781 11.82035156 9 13 C5.7 13 2.4 13 -1 13 C-1.33 11.35 -1.66 9.7 -2 8 C1.44069624 5.70620251 2.72290301 5 7 5 C6.34 4.01 5.68 3.02 5 2 C3.02 2.33 1.04 2.66 -1 3 C-0.67 2.01 -0.34 1.02 0 0 Z " fill="#D5D5D8" transform="translate(295,166)"/>
<path d="M0 0 C4.19574709 5.4727136 4.44925863 9.16708962 4 16 C3 19.625 3 19.625 2 22 C1.34 22 0.68 22 0 22 C-0.20753906 22.73734375 -0.41507813 23.4746875 -0.62890625 24.234375 C-2.42187341 27.85095833 -4.55051314 29.09875017 -7.9375 31.25 C-8.99839844 31.93578125 -10.05929688 32.6215625 -11.15234375 33.328125 C-14 35 -14 35 -17 36 C-17 31.38 -17 26.76 -17 22 C-14 25 -14 25 -13.8125 28.6875 C-13.874375 29.780625 -13.93625 30.87375 -14 32 C-12.68 31.67 -11.36 31.34 -10 31 C-10 30.34 -10 29.68 -10 29 C-8.34928604 27.97388051 -6.68029994 26.97691857 -5 26 C-1.07305013 22.56391886 0.66429094 18.09794673 1.22265625 12.9453125 C1.28237612 8.56016781 0.71843871 4.31063225 0 0 Z " fill="#184D80" transform="translate(180,105)"/>
<path d="M0 0 C-0.99 0.598125 -1.98 1.19625 -3 1.8125 C-5.30864536 3.71181108 -5.93574117 4.66326383 -6.50390625 7.640625 C-6.60737299 12.80016646 -6.58826983 16.07274615 -3 20 C-1.19246186 21.61788211 0.67957403 23.11866579 2.57421875 24.6328125 C3.04472656 25.08398438 3.51523438 25.53515625 4 26 C4 26.66 4 27.32 4 28 C-1.40076178 26.25269472 -5.14851742 23.09834693 -8.875 18.875 C-10.62893388 14.39272454 -10.72133564 9.74525701 -10 5 C-7.38820262 0.78318746 -5.00243752 -1.66747917 0 0 Z " fill="#1DC6D1" transform="translate(115,67)"/>
<path d="M0 0 C0.99 0 1.98 0 3 0 C3 3.63 3 7.26 3 11 C4.98 10.67 6.96 10.34 9 10 C9.33 6.7 9.66 3.4 10 0 C10.66 0 11.32 0 12 0 C12 4.62 12 9.24 12 14 C10.576875 14.061875 9.15375 14.12375 7.6875 14.1875 C6.48673828 14.23970703 6.48673828 14.23970703 5.26171875 14.29296875 C3 14 3 14 1.21875 12.84375 C-0.48719934 10.26295485 -0.29557492 8.37462267 -0.1875 5.3125 C-0.16042969 4.31863281 -0.13335937 3.32476562 -0.10546875 2.30078125 C-0.07066406 1.54152344 -0.03585937 0.78226563 0 0 Z " fill="#B3B3B9" transform="translate(272,166)"/>
<path d="M0 0 C7.26 0 14.52 0 22 0 C22 0.33 22 0.66 22 1 C15.4 1 8.8 1 2 1 C2 4.3 2 7.6 2 11 C7.94 11 13.88 11 20 11 C19.67 11.66 19.34 12.32 19 13 C12.73 13 6.46 13 0 13 C0 8.71 0 4.42 0 0 Z " fill="#3D3D44" transform="translate(363,88)"/>
<path d="M0 0 C0.99 0 1.98 0 3 0 C3 3.63 3 7.26 3 11 C4.98 10.67 6.96 10.34 9 10 C9.33 6.7 9.66 3.4 10 0 C10.66 0 11.32 0 12 0 C12 4.29 12 8.58 12 13 C10.39125 13.04125 8.7825 13.0825 7.125 13.125 C6.22007812 13.14820313 5.31515625 13.17140625 4.3828125 13.1953125 C2 13 2 13 0 11 C-0.1953125 8.3984375 -0.1953125 8.3984375 -0.125 5.375 C-0.10695313 4.37210938 -0.08890625 3.36921875 -0.0703125 2.3359375 C-0.04710937 1.56507813 -0.02390625 0.79421875 0 0 Z " fill="#BDBCC0" transform="translate(342,166)"/>
<path d="M0 0 C8.625 -0.25 8.625 -0.25 12 2 C12.29296875 4.8203125 12.29296875 4.8203125 12.1875 8.125 C12.16042969 9.22070312 12.13335937 10.31640625 12.10546875 11.4453125 C12.07066406 12.28835937 12.03585937 13.13140625 12 14 C11.01 14 10.02 14 9 14 C9 10.04 9 6.08 9 2 C7.02 2.33 5.04 2.66 3 3 C2.67 6.3 2.34 9.6 2 13 C1.34 13 0.68 13 0 13 C0 8.71 0 4.42 0 0 Z " fill="#B8B8BE" transform="translate(443,166)"/>
<path d="M0 0 C1.3921875 0.3403125 1.3921875 0.3403125 2.8125 0.6875 C3.1425 1.6775 3.4725 2.6675 3.8125 3.6875 C1.5025 3.3575 -0.8075 3.0275 -3.1875 2.6875 C-3.1875 3.6775 -3.1875 4.6675 -3.1875 5.6875 C-2.0428125 5.873125 -2.0428125 5.873125 -0.875 6.0625 C1.8125 6.6875 1.8125 6.6875 4.8125 8.6875 C4.8125 10.0075 4.8125 11.3275 4.8125 12.6875 C1.56616476 14.8517235 0.56948557 15.06319856 -3.1875 14.6875 C-4.1775 14.0275 -5.1675 13.3675 -6.1875 12.6875 C-6.1875 12.0275 -6.1875 11.3675 -6.1875 10.6875 C-3.5475 11.0175 -0.9075 11.3475 1.8125 11.6875 C1.8125 11.0275 1.8125 10.3675 1.8125 9.6875 C0.678125 9.275 -0.45625 8.8625 -1.625 8.4375 C-5.1875 6.6875 -5.1875 6.6875 -6.3125 4.6875 C-6.1875 2.6875 -6.1875 2.6875 -5.125 0.875 C-3.1875 -0.3125 -3.1875 -0.3125 0 0 Z " fill="#B5B5BA" transform="translate(414.1875,165.3125)"/>
<path d="M0 0 C6.625 0.75 6.625 0.75 10 3 C10 3.66 10 4.32 10 5 C11.32 5.33 12.64 5.66 14 6 C14 6.66 14 7.32 14 8 C14.71929687 8.25910156 15.43859375 8.51820312 16.1796875 8.78515625 C19.1319428 10.05683409 21.50815193 11.57689702 24.125 13.4375 C24.97320312 14.03433594 25.82140625 14.63117188 26.6953125 15.24609375 C28.64309316 16.72838784 30.33162439 18.21712802 32 20 C31.67 20.66 31.34 21.32 31 22 C30.48695313 21.55011719 29.97390625 21.10023437 29.4453125 20.63671875 C23.07249129 15.28311979 16.31913131 10.99191243 9.15869141 6.77026367 C8.4063623 6.32400635 7.6540332 5.87774902 6.87890625 5.41796875 C6.2041626 5.02375732 5.52941895 4.6295459 4.83422852 4.22338867 C2.97353694 2.98234974 1.52176227 1.63225326 0 0 Z " fill="#1F80AB" transform="translate(129,102)"/>
<path d="M0 0 C0.66 0 1.32 0 2 0 C2.33 3.3 2.66 6.6 3 10 C4.65 10 6.3 10 8 10 C8.33 6.7 8.66 3.4 9 0 C9.66 0 10.32 0 11 0 C11 4.29 11 8.58 11 13 C6.545 13.495 6.545 13.495 2 14 C-0.28062828 10.57905758 -0.21925007 9.31812778 -0.125 5.3125 C-0.10695313 4.31863281 -0.08890625 3.32476562 -0.0703125 2.30078125 C-0.04710937 1.54152344 -0.02390625 0.78226563 0 0 Z " fill="#C4C5CA" transform="translate(428,166)"/>
<path d="M0 0 C2.4375 0.1875 2.4375 0.1875 3.4375 1.1875 C3.625 4.625 3.625 4.625 3.4375 8.1875 C2.7775 8.8475 2.1175 9.5075 1.4375 10.1875 C-3.11805556 9.63194444 -3.11805556 9.63194444 -4.5625 8.1875 C-4.75 5.25 -4.75 5.25 -4.5625 2.1875 C-2.5625 0.1875 -2.5625 0.1875 0 0 Z " fill="#121220" transform="translate(399.5625,167.8125)"/>
<path d="M0 0 C3.125 0.375 3.125 0.375 6 1 C6.33 1.99 6.66 2.98 7 4 C4.03 3.505 4.03 3.505 1 3 C0.67 3.99 0.34 4.98 0 6 C0.78375 5.95875 1.5675 5.9175 2.375 5.875 C5 6 5 6 7 8 C7.1875 10.5625 7.1875 10.5625 7 13 C6 14 6 14 4.15234375 14.09765625 C2.1015625 14.06510417 0.05078125 14.03255208 -2 14 C-2.33 13.01 -2.66 12.02 -3 11 C-0.36 11.66 2.28 12.32 5 13 C5 11.68 5 10.36 5 9 C4.05125 8.87625 3.1025 8.7525 2.125 8.625 C-1 8 -1 8 -3 6 C-2.63318342 3.06546739 -2.13562754 2.13562754 0 0 Z " fill="#B5B5B9" transform="translate(310,165)"/>
<path d="M0 0 C2.5625 0.1875 2.5625 0.1875 4.5625 2.1875 C4.875 5.1875 4.875 5.1875 4.5625 8.1875 C1.5625 10.1875 1.5625 10.1875 -0.5625 9.875 C-2.4375 9.1875 -2.4375 9.1875 -3.4375 8.1875 C-3.5625 4.6875 -3.5625 4.6875 -3.4375 1.1875 C-2.4375 0.1875 -2.4375 0.1875 0 0 Z " fill="#12121C" transform="translate(332.4375,167.8125)"/>
<path d="M0 0 C6.75 -0.125 6.75 -0.125 9 1 C9.125 3.375 9.125 3.375 9 6 C7 8 7 8 3.375 8.125 C2.26125 8.08375 1.1475 8.0425 0 8 C0 5.36 0 2.72 0 0 Z " fill="#23232C" transform="translate(218,163)"/>
<path d="M0 0 C1.670625 0.061875 1.670625 0.061875 3.375 0.125 C4.035 1.445 4.695 2.765 5.375 4.125 C4.715 3.795 4.055 3.465 3.375 3.125 C1.37539988 3.085008 -0.62547242 3.08153201 -2.625 3.125 C-2.625 5.435 -2.625 7.745 -2.625 10.125 C0.28982778 10.93467438 1.83613217 11.34345993 4.6875 10.1875 C5.244375 9.836875 5.80125 9.48625 6.375 9.125 C5.75 11.0625 5.75 11.0625 4.375 13.125 C1.5625 14.1875 1.5625 14.1875 -1.625 14.125 C-4.5625 12.125 -4.5625 12.125 -6.625 9.125 C-6.52892739 3.45671615 -6.19506086 0.21362279 0 0 Z " fill="#BFBFC3" transform="translate(263.625,165.875)"/>
<path d="M0 0 C6.8359375 -0.1953125 6.8359375 -0.1953125 9 0 C11 2 11 2 11.1953125 4.6015625 C11.17210937 5.59929687 11.14890625 6.59703125 11.125 7.625 C11.10695313 8.62789062 11.08890625 9.63078125 11.0703125 10.6640625 C11.03550781 11.82035156 11.03550781 11.82035156 11 13 C10.34 13 9.68 13 9 13 C8.67 9.7 8.34 6.4 8 3 C6.35 3 4.7 3 3 3 C2.67 6.3 2.34 9.6 2 13 C1.34 13 0.68 13 0 13 C0 8.71 0 4.42 0 0 Z " fill="#CFCFD3" transform="translate(379,166)"/>
<path d="M0 0 C4.75 0.75 4.75 0.75 7 3 C7 4.32 7 5.64 7 7 C3.7 7 0.4 7 -3 7 C-2.34 8.32 -1.68 9.64 -1 11 C1.64 10.67 4.28 10.34 7 10 C5.875 12 5.875 12 4 14 C0.9375 14.4375 0.9375 14.4375 -2 14 C-4.4294516 10.3558226 -4.16179575 8.28758728 -4 4 C-1.03 4.33 1.94 4.66 5 5 C3.16666667 1.83333333 3.16666667 1.83333333 0 0 Z " fill="#CECED2" transform="translate(236,166)"/>
<path d="M0 0 C6.8359375 -0.1953125 6.8359375 -0.1953125 9 0 C11 2 11 2 11.1953125 4.6015625 C11.17210937 5.59929687 11.14890625 6.59703125 11.125 7.625 C11.10695313 8.62789062 11.08890625 9.63078125 11.0703125 10.6640625 C11.03550781 11.82035156 11.03550781 11.82035156 11 13 C10.34 13 9.68 13 9 13 C8.67 9.7 8.34 6.4 8 3 C6.68 2.67 5.36 2.34 4 2 C2.26043342 3.73956658 2.62809614 6.1936622 2.4375 8.5625 C2.35371094 9.57441406 2.26992188 10.58632812 2.18359375 11.62890625 C2.12300781 12.41136719 2.06242187 13.19382813 2 14 C1.34 14 0.68 14 0 14 C0 9.38 0 4.76 0 0 Z " fill="#CCCCD1" transform="translate(473,166)"/>
<path d="M0 0 C-3 2 -3 2 -5 3 C-5.33 3.99 -5.66 4.98 -6 6 C-3.03 6 -0.06 6 3 6 C3.33 5.34 3.66 4.68 4 4 C4 4.99 4 5.98 4 7 C0.7 7 -2.6 7 -6 7 C-5.34 8.32 -4.68 9.64 -4 11 C-1.36 10.67 1.28 10.34 4 10 C4 10.66 4 11.32 4 12 C1 14 1 14 -2.5625 13.8125 C-6 13 -6 13 -8 10 C-8.54552912 3.89007383 -8.54552912 3.89007383 -6.8125 1.0625 C-4.43958382 -0.32851983 -2.70313576 -0.21917317 0 0 Z " fill="#CDCDD2" transform="translate(365,166)"/>
<path d="M0 0 C0.99 0 1.98 0 3 0 C3 6.6 3 13.2 3 20 C2.01 20 1.02 20 0 20 C0 13.4 0 6.8 0 0 Z " fill="#A1A1A8" transform="translate(246,160)"/>
<path d="M0 0 C2.375 -0.125 2.375 -0.125 5 0 C7 2 7 2 7.125 4.625 C7.08375 5.40875 7.0425 6.1925 7 7 C4.03 7 1.06 7 -2 7 C-1.34 8.32 -0.68 9.64 0 11 C3.465 10.505 3.465 10.505 7 10 C7 10.66 7 11.32 7 12 C3.76746204 14.15502531 2.74849077 14.46856135 -1 14 C-2.8125 12.9375 -2.8125 12.9375 -4 11 C-4.1875 7.3125 -4.1875 7.3125 -4 4 C-3.67 4.66 -3.34 5.32 -3 6 C-0.03 6 2.94 6 6 6 C4.11192137 3.30274481 2.80175356 1.86783571 0 0 Z " fill="#C7C7CB" transform="translate(462,166)"/>
<path d="M0 0 C2.875 0.75 2.875 0.75 6 2 C6.66 3.32 7.32 4.64 8 6 C5.03 6 2.06 6 -1 6 C-1.66 7.32 -2.32 8.64 -3 10 C-3.36923077 3.47692308 -3.36923077 3.47692308 -1.5 1.0625 C-1.005 0.711875 -0.51 0.36125 0 0 Z " fill="#A4A4AA" transform="translate(460,166)"/>
<path d="M0 0 C0.66 0.33 1.32 0.66 2 1 C-0.95708259 2.98104042 -3.9158753 4.95951149 -6.875 6.9375 C-7.71675781 7.50146484 -8.55851562 8.06542969 -9.42578125 8.64648438 C-10.23144531 9.18466797 -11.03710938 9.72285156 -11.8671875 10.27734375 C-12.98262939 11.02359009 -12.98262939 11.02359009 -14.12060547 11.78491211 C-18.24618387 14.45222877 -21.14060602 14.07837732 -26 14 C-26 13.67 -26 13.34 -26 13 C-24.37239583 12.57682292 -22.74479167 12.15364583 -21.1171875 11.73046875 C-15.08376337 9.64882611 -9.81203723 6.07687891 -4.50390625 2.609375 C-3.03855485 1.68029439 -1.52223935 0.83260605 0 0 Z " fill="#110851" transform="translate(139,155)"/>
<path d="M0 0 C-2.61514317 2.12038635 -5.19637616 4.13091744 -8 6 C-8.50904384 8.4157113 -8.50904384 8.4157113 -8.51171875 11.2265625 C-8.54716797 12.2578125 -8.58261719 13.2890625 -8.61914062 14.3515625 C-8.64169922 15.43179688 -8.66425781 16.51203125 -8.6875 17.625 C-8.72166016 18.71296875 -8.75582031 19.8009375 -8.79101562 20.921875 C-8.87368334 23.61448063 -8.94277087 26.30675291 -9 29 C-9.33 29 -9.66 29 -10 29 C-10.11614929 24.9169058 -10.18723457 20.83423623 -10.25 16.75 C-10.28351563 15.59113281 -10.31703125 14.43226562 -10.3515625 13.23828125 C-10.36445313 12.12324219 -10.37734375 11.00820312 -10.390625 9.859375 C-10.41157227 8.83295898 -10.43251953 7.80654297 -10.45410156 6.74902344 C-9.44178309 0.62068687 -5.66994705 -0.51544973 0 0 Z " fill="#272730" transform="translate(289,101)"/>
<path d="M0 0 C0.99 0 1.98 0 3 0 C3 4.95 3 9.9 3 15 C2.01 15 1.02 15 0 15 C0 10.05 0 5.1 0 0 Z " fill="#93929B" transform="translate(252,165)"/>
<path d="M0 0 C2.6327755 1.49190612 3.00773119 3.24387637 3.875 6.0625 C1.235 6.0625 -1.405 6.0625 -4.125 6.0625 C-4.455 7.7125 -4.785 9.3625 -5.125 11.0625 C-5.455 11.0625 -5.785 11.0625 -6.125 11.0625 C-6.61014851 4.75556931 -6.61014851 4.75556931 -4.375 1.5625 C-2.125 0.0625 -2.125 0.0625 0 0 Z " fill="#A4A4AA" transform="translate(237.125,164.9375)"/>
<path d="M0 0 C0.8353125 0.556875 0.8353125 0.556875 1.6875 1.125 C1.3575 2.445 1.0275 3.765 0.6875 5.125 C-2.2825 5.125 -5.2525 5.125 -8.3125 5.125 C-7.9825 3.805 -7.6525 2.485 -7.3125 1.125 C-4.4547735 -0.57418873 -3.16422579 -1.19727462 0 0 Z " fill="#A9A9AE" transform="translate(367.3125,166.875)"/>
<path d="M0 0 C0.33 0 0.66 0 1 0 C1.01981934 0.56396484 1.03963867 1.12792969 1.06005859 1.70898438 C1.15631811 4.30639574 1.26558052 6.90311103 1.375 9.5 C1.4059375 10.386875 1.436875 11.27375 1.46875 12.1875 C1.71319978 17.72836176 2.46738245 22.66698933 4 28 C3.01 28.66 2.02 29.32 1 30 C-0.09911549 26.70265354 -0.1139456 24.27041255 -0.09765625 20.80078125 C-0.09443359 19.59228516 -0.09121094 18.38378906 -0.08789062 17.13867188 C-0.07951172 15.87603516 -0.07113281 14.61339844 -0.0625 13.3125 C-0.05573242 11.40114258 -0.05573242 11.40114258 -0.04882812 9.45117188 C-0.03702873 6.30073436 -0.02056597 3.15039051 0 0 Z " fill="#27177C" transform="translate(37,139)"/>
<path d="M0 0 C2.64 0 5.28 0 8 0 C6.40807593 4.77577221 2.34789209 6.73995708 -2 9 C-5.5625 9.375 -5.5625 9.375 -8 9 C-7.01 8.67 -6.02 8.34 -5 8 C-5 7.34 -5 6.68 -5 6 C-2.36 5.34 0.28 4.68 3 4 C2.01 2.68 1.02 1.36 0 0 Z " fill="#1A0F57" transform="translate(80,181)"/>
<path d="M0 0 C0.33 0 0.66 0 1 0 C1 2.64 1 5.28 1 8 C-5.0546875 8.9765625 -5.0546875 8.9765625 -7 9 C-7.66 8.34 -8.32 7.68 -9 7 C-9 6.01 -9 5.02 -9 4 C-6.03 4 -3.06 4 0 4 C0 2.68 0 1.36 0 0 Z " fill="#31313A" transform="translate(469,169)"/>
<path d="M0 0 C3 3 3 3 3.1875 6.6875 C3.125625 7.780625 3.06375 8.87375 3 10 C4.32 9.67 5.64 9.34 7 9 C7 8.34 7 7.68 7 7 C9.3125 5.3125 9.3125 5.3125 12 4 C12.99 4.33 13.98 4.66 15 5 C13.06537998 6.31674138 11.12720303 7.62825798 9.1875 8.9375 C8.10855469 9.66839844 7.02960938 10.39929688 5.91796875 11.15234375 C3 13 3 13 0 14 C0 9.38 0 4.76 0 0 Z " fill="#19387B" transform="translate(163,127)"/>
<path d="M0 0 C1.11375 0.7115625 1.11375 0.7115625 2.25 1.4375 C4.61050015 2.77869327 6.36648477 3.512312 9 4 C9 5.32 9 6.64 9 8 C5.80097361 8.08886184 3.07322544 7.91058531 0 7 C0 4.69 0 2.38 0 0 Z " fill="#15151A" transform="translate(306,170)"/>
<path d="M0 0 C1.875 1.125 1.875 1.125 2.875 2.125 C3.1875 5.5 3.1875 5.5 2.875 9.125 C0.875 11.0625 0.875 11.0625 -1.125 12.125 C-1.125 8.79166667 -1.125 5.45833333 -1.125 2.125 C-2.445 1.465 -3.765 0.805 -5.125 0.125 C-2.125 -0.875 -2.125 -0.875 0 0 Z " fill="#CACACD" transform="translate(403.125,166.875)"/>
<path d="M0 0 C5.625 2.25 5.625 2.25 8 5 C6.68 5 5.36 5 4 5 C3.34 7.97 2.68 10.94 2 14 C1.67 14 1.34 14 1 14 C0.67 9.38 0.34 4.76 0 0 Z " fill="#0E3261" transform="translate(138,109)"/>
<path d="M0 0 C4.34863652 0.56444825 7.17827655 2.15427964 10.8125 4.5625 C12.27623047 5.52349609 12.27623047 5.52349609 13.76953125 6.50390625 C14.50558594 6.99761719 15.24164063 7.49132812 16 8 C15.67 8.99 15.34 9.98 15 11 C12.49720508 9.35828571 9.99772323 7.71189741 7.5 6.0625 C6.78457031 5.59392578 6.06914062 5.12535156 5.33203125 4.64257812 C3.53711592 3.45451512 1.7663474 2.23013479 0 1 C0 0.67 0 0.34 0 0 Z " fill="#20D4DE" transform="translate(135,75)"/>
<path d="M0 0 C2.97 0.495 2.97 0.495 6 1 C6.33 2.65 6.66 4.3 7 6 C3.75366476 8.1642235 2.75698557 8.37569856 -1 8 C-1.99 7.34 -2.98 6.68 -4 6 C-4 5.34 -4 4.68 -4 4 C-1.36 4.33 1.28 4.66 4 5 C4 4.34 4 3.68 4 3 C2.68 2.34 1.36 1.68 0 1 C0 0.67 0 0.34 0 0 Z " fill="#C8C8CD" transform="translate(412,172)"/>
<path d="M0 0 C-0.66 1.32 -1.32 2.64 -2 4 C-2.99 3.67 -3.98 3.34 -5 3 C-5 6.96 -5 10.92 -5 15 C-9.34944269 15.86988854 -10.97128525 16.03595522 -15 15 C-15 14.67 -15 14.34 -15 14 C-8.25 12.875 -8.25 12.875 -6 14 C-6 9.71 -6 5.42 -6 1 C-2 0 -2 0 0 0 Z " fill="#34343F" transform="translate(360,165)"/>
<path d="M0 0 C5.73491451 -0.88229454 8.76938812 1.49896975 13.2421875 4.6875 C13.82226562 5.120625 14.40234375 5.55375 15 6 C14.67 6.99 14.34 7.98 14 9 C12.22891052 7.87540329 10.45813764 6.75030797 8.6875 5.625 C7.20830078 4.68527344 7.20830078 4.68527344 5.69921875 3.7265625 C3.78712071 2.50348387 1.8885966 1.2590644 0 0 Z " fill="#1DDAE4" transform="translate(119,66)"/>
<path d="M0 0 C0.99 0.33 1.98 0.66 3 1 C1.68 1.33 0.36 1.66 -1 2 C-1 2.66 -1 3.32 -1 4 C-2.96466413 5.06775224 -4.96855359 6.06553465 -7 7 C-7.66 6.67 -8.32 6.34 -9 6 C-8.67 5.34 -8.34 4.68 -8 4 C-9.98 4 -11.96 4 -14 4 C-14 3.67 -14 3.34 -14 3 C-13.15695313 2.86722656 -12.31390625 2.73445312 -11.4453125 2.59765625 C-10.34960938 2.42105469 -9.25390625 2.24445313 -8.125 2.0625 C-6.48917969 1.80146484 -6.48917969 1.80146484 -4.8203125 1.53515625 C-2.06178454 1.14448841 -2.06178454 1.14448841 0 0 Z " fill="#0E0A35" transform="translate(96,177)"/>
<path d="M0 0 C0.33 0 0.66 0 1 0 C1 1.65 1 3.3 1 5 C2.98 4.67 4.96 4.34 7 4 C6.40138258 6.35171131 5.73075648 8.6859378 5 11 C4.01 11.495 4.01 11.495 3 12 C3 11.01 3 10.02 3 9 C2.34 9 1.68 9 1 9 C-1.125 2.25 -1.125 2.25 0 0 Z " fill="#2F2F36" transform="translate(324,106)"/>
<path d="M0 0 C3.1875 0.875 3.1875 0.875 6 2 C5.67 2.99 5.34 3.98 5 5 C0.44615385 5.36923077 0.44615385 5.36923077 -1.8125 3.5 C-2.204375 3.005 -2.59625 2.51 -3 2 C-2.01 1.34 -1.02 0.68 0 0 Z " fill="#242428" transform="translate(411,173)"/>
<path d="M0 0 C0.66 0.33 1.32 0.66 2 1 C-8.37357631 8.66742597 -8.37357631 8.66742597 -14 10 C-11.19533807 7.00618646 -8.38815731 4.8006379 -4.875 2.6875 C-4.00617188 2.15511719 -3.13734375 1.62273437 -2.2421875 1.07421875 C-1.50226563 0.71972656 -0.76234375 0.36523438 0 0 Z " fill="#AFAEC9" transform="translate(102,128)"/>
<path d="M0 0 C-0.33 1.32 -0.66 2.64 -1 4 C-2.65 4.33 -4.3 4.66 -6 5 C-6.33 3.68 -6.66 2.36 -7 1 C-4.53721199 -0.231394 -2.7204945 -0.07159196 0 0 Z " fill="#2A2A30" transform="translate(302,173)"/>
<path d="M0 0 C2.375 -0.125 2.375 -0.125 5 0 C7 2 7 2 7 7 C3.37 7 -0.26 7 -4 7 C-3.67 6.01 -3.34 5.02 -3 4 C-3 4.66 -3 5.32 -3 6 C-0.03 6 2.94 6 6 6 C4.11192137 3.30274481 2.80175356 1.86783571 0 0 Z " fill="#E1E0E6" transform="translate(462,166)"/>
<path d="M0 0 C0.54527344 0.13277344 1.09054688 0.26554688 1.65234375 0.40234375 C7.09902987 1.67789247 12.43120352 2.46963843 18 3 C18 3.33 18 3.66 18 4 C13.05 4 8.1 4 3 4 C3 3.34 3 2.68 3 2 C2.01 1.67 1.02 1.34 0 1 C0 0.67 0 0.34 0 0 Z " fill="#0F074C" transform="translate(54,187)"/>
<path d="M0 0 C2.64 0 5.28 0 8 0 C7.67 1.65 7.34 3.3 7 5 C4.69 4.34 2.38 3.68 0 3 C0 2.01 0 1.02 0 0 Z " fill="#1E1E25" transform="translate(411,168)"/>
<path d="M0 0 C3.3 0 6.6 0 10 0 C10 0.33 10 0.66 10 1 C7.69 1 5.38 1 3 1 C3 1.66 3 2.32 3 3 C3.99 3 4.98 3 6 3 C6 3.66 6 4.32 6 5 C4.35 4.67 2.7 4.34 1 4 C0.67 2.68 0.34 1.36 0 0 Z " fill="#303037" transform="translate(359,173)"/>
<path d="M0 0 C0 0.66 0 1.32 0 2 C-2.31 2.33 -4.62 2.66 -7 3 C-6.67 4.32 -6.34 5.64 -6 7 C-6.99 7 -7.98 7 -9 7 C-8.75 4.625 -8.75 4.625 -8 2 C-5.10189884 -0.09862498 -3.71621139 0 0 0 Z " fill="#CECED1" transform="translate(302,171)"/>
<path d="M0 0 C2.31 0 4.62 0 7 0 C7.66 1.32 8.32 2.64 9 4 C8.34 3.67 7.68 3.34 7 3 C3.62177584 2.85624578 1.22609045 2.92463652 -2 4 C-1.34 2.68 -0.68 1.36 0 0 Z " fill="#C9C8CC" transform="translate(260,166)"/>
<path d="M0 0 C3.07388417 4.00941413 4.1276781 6.04110792 4.0625 11.125 C4.05347656 12.03507812 4.04445312 12.94515625 4.03515625 13.8828125 C4.02355469 14.58148438 4.01195312 15.28015625 4 16 C3.67 16 3.34 16 3 16 C2.814375 14.14375 2.814375 14.14375 2.625 12.25 C2.23828541 9.06661035 1.51856078 6.83464679 0 4 C0 2.68 0 1.36 0 0 Z " fill="#144767" transform="translate(180,105)"/>
<path d="M0 0 C1.9375 0.3125 1.9375 0.3125 4 1 C4.33 1.99 4.66 2.98 5 4 C2.69 4 0.38 4 -2 4 C-1.34 2.68 -0.68 1.36 0 0 Z " fill="#17181A" transform="translate(462,167)"/>
<path d="M0 0 C2.625 -0.1875 2.625 -0.1875 5 0 C5.33 0.99 5.66 1.98 6 3 C3.36 3 0.72 3 -2 3 C-1.34 2.01 -0.68 1.02 0 0 Z " fill="#131318" transform="translate(235,168)"/>
<path d="M0 0 C1.98 0 3.96 0 6 0 C6.33 0.99 6.66 1.98 7 3 C4.69 3 2.38 3 0 3 C0 2.01 0 1.02 0 0 Z " fill="#14141D" transform="translate(360,168)"/>
<path d="M0 0 C2.31 0.33 4.62 0.66 7 1 C7 1.66 7 2.32 7 3 C4.36 3.33 1.72 3.66 -1 4 C-0.67 2.68 -0.34 1.36 0 0 Z " fill="#26262D" transform="translate(311,167)"/>
<path d="M0 0 C2.64 0 5.28 0 8 0 C8.33 1.32 8.66 2.64 9 4 C2.25 3.125 2.25 3.125 0 2 C0 1.34 0 0.68 0 0 Z " fill="#BFBFC3" transform="translate(380,166)"/>
<path d="M0 0 C1.3921875 0.2784375 1.3921875 0.2784375 2.8125 0.5625 C6.01343771 1.24123881 6.01343771 1.24123881 9 0 C8.67 0.99 8.34 1.98 8 3 C5.69 3.33 3.38 3.66 1 4 C0.67 2.68 0.34 1.36 0 0 Z " fill="#A4A0C4" transform="translate(78,138)"/>
<path d="M0 0 C1.39864092 3.17872935 0.89282517 4.30111022 -0.3125 7.6875 C-2 11 -2 11 -4 12 C-3.52309796 10.37433394 -3.04340334 8.74948689 -2.5625 7.125 C-2.29566406 6.22007813 -2.02882813 5.31515625 -1.75390625 4.3828125 C-1 2 -1 2 0 0 Z " fill="#4C4C54" transform="translate(335,121)"/>
<path d="M0 0 C1.65 0 3.3 0 5 0 C5 0.66 5 1.32 5 2 C2.11788698 2.96070434 0.30149956 3.10581883 -2.6875 3.0625 C-3.89986328 3.04896484 -3.89986328 3.04896484 -5.13671875 3.03515625 C-6.05904297 3.01775391 -6.05904297 3.01775391 -7 3 C-7 2.67 -7 2.34 -7 2 C-4.69 2 -2.38 2 0 2 C0 1.34 0 0.68 0 0 Z " fill="#2B1985" transform="translate(70,187)"/>
<path d="M0 0 C1.134375 0.020625 2.26875 0.04125 3.4375 0.0625 C2.57125 0.4646875 2.57125 0.4646875 1.6875 0.875 C-0.5950868 2.07969859 -2.5362942 3.47048115 -4.5625 5.0625 C-4.5625 0.08004386 -4.5625 0.08004386 0 0 Z " fill="#12121C" transform="translate(468.5625,101.9375)"/>
<path d="M0 0 C2.84383123 1.2748209 5.13754018 2.45137078 7 5 C6.6875 7.1875 6.6875 7.1875 6 9 C5.566875 8.21625 5.13375 7.4325 4.6875 6.625 C3.10779753 3.78301625 3.10779753 3.78301625 0 2 C0 1.34 0 0.68 0 0 Z " fill="#2083A1" transform="translate(173,99)"/>
<path d="M0 0 C0.5625 1.9375 0.5625 1.9375 1 4 C0 5 0 5 -1.84765625 5.09765625 C-3.8984375 5.06510417 -5.94921875 5.03255208 -8 5 C-8.33 4.01 -8.66 3.02 -9 2 C-6.36 2.33 -3.72 2.66 -1 3 C-0.67 2.01 -0.34 1.02 0 0 Z " fill="#D6D6D9" transform="translate(316,174)"/>
<path d="M0 0 C0.33 0 0.66 0 1 0 C1 2.31 1 4.62 1 7 C-0.98 7.99 -0.98 7.99 -3 9 C-2.01 6.03 -1.02 3.06 0 0 Z " fill="#CECFD2" transform="translate(228,163)"/>
<path d="M0 0 C6.625 0.75 6.625 0.75 10 3 C9.67 3.66 9.34 4.32 9 5 C4.545 3.02 4.545 3.02 0 1 C0 0.67 0 0.34 0 0 Z " fill="#20A1B9" transform="translate(129,102)"/>
<path d="M0 0 C2.00720923 0.28674418 4.0085944 0.61866701 6 1 C3 3 3 3 1 3 C-0.34882408 3.63474075 -1.6846659 4.29848848 -3 5 C-1.125 1.125 -1.125 1.125 0 0 Z " fill="#9F9DA6" transform="translate(80,91)"/>
<path d="M0 0 C0.598125 0.350625 1.19625 0.70125 1.8125 1.0625 C1.4825 3.3725 1.1525 5.6825 0.8125 8.0625 C0.4825 8.0625 0.1525 8.0625 -0.1875 8.0625 C-0.27 7.11375 -0.3525 6.165 -0.4375 5.1875 C-0.83824923 1.95788209 -0.83824923 1.95788209 -3.25 0.6875 C-3.889375 0.48125 -4.52875 0.275 -5.1875 0.0625 C-2.1875 -0.9375 -2.1875 -0.9375 0 0 Z " fill="#A0A1A7" transform="translate(403.1875,166.9375)"/>
<path d="M0 0 C1.98 0.99 3.96 1.98 6 3 C6 3.66 6 4.32 6 5 C6.66 5 7.32 5 8 5 C7.67 5.66 7.34 6.32 7 7 C5.82780457 6.21654285 4.66236332 5.42297164 3.5 4.625 C2.8503125 4.18414062 2.200625 3.74328125 1.53125 3.2890625 C1.0259375 2.86367187 0.520625 2.43828125 0 2 C0 1.34 0 0.68 0 0 Z " fill="#29B8C9" transform="translate(121,95)"/>
</svg>
